<?xml version="1.0" standalone="no"?>
<!DOCTYPE svg PUBLIC "-//W3C//DTD SVG 20010904//EN"
 "http://www.w3.org/TR/2001/REC-SVG-20010904/DTD/svg10.dtd">
<svg version="1.0" xmlns="http://www.w3.org/2000/svg"
 width="686.000000pt" height="658.000000pt" viewBox="0 0 686.000000 658.000000"
 preserveAspectRatio="xMidYMid meet">

<g transform="translate(0.000000,658.000000) scale(0.100000,-0.100000)"
fill="none" stroke="none">

<path d="M0 3290 l0 -3290 3430 0 3430 0 0 3290 0 3290 -3430 0 -3430 0 0
-3290z m3500 2835 c0 -33 -2 -35 -32 -35 l-31 0 7 -180 6 -180 -25 -6 c-14 -4
-29 -3 -33 1 -4 3 -11 86 -17 183 l-10 176 -30 1 c-26 0 -30 4 -33 32 l-3 32
58 4 c153 9 143 11 143 -28z m215 21 c18 -8 38 -23 44 -34 12 -23 13 -209 2
-291 -10 -69 -43 -101 -102 -101 -32 0 -47 7 -71 31 l-31 30 7 147 c8 162 21
205 64 221 38 13 48 13 87 -3z m-527 -203 c-3 -178 -4 -186 -23 -188 -11 -2
-76 -6 -145 -9 -156 -8 -342 -40 -505 -87 -820 -235 -1469 -883 -1706 -1704
-178 -619 -106 -1302 198 -1865 43 -78 156 -259 188 -298 7 -9 42 -53 77 -97
84 -106 251 -272 368 -366 318 -255 712 -437 1105 -509 93 -17 313 -40 383
-40 l62 0 0 -187 0 -186 -153 6 c-523 22 -1092 224 -1520 540 -721 534 -1144
1332 -1174 2216 -26 803 270 1554 837 2121 524 524 1195 811 1958 838 l52 2
-2 -187z m788 176 c65 -17 87 -49 81 -120 -9 -99 -56 -150 -125 -134 l-30 6
-12 -73 c-15 -95 -17 -101 -36 -94 -9 3 -22 6 -31 6 -16 0 -16 -8 12 170 7 47
19 122 26 168 12 81 13 82 41 82 16 0 49 -5 74 -11z m427 -96 c44 -22 56 -41
57 -88 0 -51 -11 -68 -41 -63 -20 2 -24 9 -27 45 -3 41 -19 58 -45 47 -14 -5
-87 -224 -87 -260 0 -23 21 -37 43 -28 7 2 19 21 26 40 12 32 16 35 39 29 15
-4 29 -8 30 -10 10 -9 -12 -69 -35 -95 -21 -25 -32 -30 -70 -30 -36 0 -50 6
-74 29 -36 37 -37 62 -3 172 47 157 59 183 94 207 39 26 51 27 93 5z m292
-136 c-3 -12 -23 -105 -45 -206 -22 -101 -42 -186 -45 -189 -3 -3 -17 0 -31 7
-23 10 -26 16 -21 47 5 31 3 36 -26 48 -30 13 -33 12 -54 -10 -25 -27 -41 -30
-66 -11 -15 11 -6 27 88 162 58 83 115 162 126 178 19 26 21 27 49 12 24 -12
29 -21 25 -38z m225 -86 c28 -16 52 -41 64 -64 l18 -38 -28 -57 c-18 -35 -42
-66 -64 -80 -29 -19 -39 -36 -61 -102 -14 -44 -28 -83 -32 -86 -3 -4 -17 1
-31 9 l-25 17 20 67 c12 38 23 76 26 86 4 11 0 17 -11 17 -8 0 -29 -23 -45
-52 -50 -89 -45 -84 -74 -71 -15 7 -27 17 -27 22 0 9 44 90 162 294 21 37 44
67 51 66 7 0 32 -13 57 -28z m-755 -511 c370 -39 556 -206 604 -540 5 -41 12
-239 13 -440 l3 -365 -217 -3 c-208 -2 -217 -2 -223 17 -3 11 -5 186 -3 388 3
395 1 418 -47 463 -51 48 -277 71 -502 52 -138 -12 -201 -34 -230 -78 -17 -27
-18 -95 -21 -1614 -3 -1739 -6 -1646 56 -1682 96 -56 481 -62 627 -11 65 23
88 40 111 83 17 32 19 62 22 318 2 179 7 282 13 282 7 0 9 -102 7 -292 -3
-287 -3 -294 -26 -331 -54 -86 -168 -117 -429 -117 -270 0 -358 24 -396 108
l-22 47 -5 1345 -5 1345 -5 -895 c-3 -492 -5 -1102 -5 -1355 0 -456 0 -460 22
-505 42 -85 118 -110 363 -117 338 -10 485 41 531 186 8 22 14 140 16 314 3
164 8 275 14 271 13 -8 11 -478 -2 -549 -30 -165 -120 -225 -376 -247 -85 -7
-163 -8 -260 0 -201 15 -268 45 -319 142 -18 33 -19 88 -25 1173 -3 625 -9
1140 -13 1144 -11 11 -7 -2237 5 -2287 21 -92 88 -154 194 -180 70 -17 270
-26 416 -19 237 11 343 68 397 211 14 35 17 94 20 331 2 171 7 287 13 287 5 0
9 -111 9 -280 0 -258 -2 -286 -21 -343 -38 -115 -100 -168 -242 -209 -76 -21
-100 -23 -317 -23 -199 0 -244 3 -294 18 -73 23 -127 56 -160 100 -58 76 -55
-6 -63 1707 l-8 1575 -7 -1535 c-5 -1005 -4 -1559 3 -1604 23 -159 91 -232
256 -273 54 -14 115 -17 288 -17 199 -1 228 1 305 22 166 46 245 120 281 268
7 28 15 170 19 329 l6 280 4 -225 c6 -383 -1 -435 -65 -529 -94 -136 -343
-199 -683 -172 -187 15 -255 34 -339 99 -42 31 -90 129 -103 207 -6 37 -11
585 -12 1405 -2 924 -4 1174 -8 800 -3 -300 -5 -927 -5 -1395 l0 -850 24 -59
c43 -108 127 -174 271 -213 98 -27 514 -26 615 1 177 47 275 132 321 276 14
46 18 104 22 352 2 170 8 298 13 298 13 0 11 -520 -2 -600 -34 -212 -183 -333
-458 -370 -113 -16 -417 -7 -511 14 -155 35 -247 105 -299 229 l-26 62 -6
1583 c-4 871 -9 1586 -13 1589 -3 4 -6 -700 -6 -1563 0 -1378 2 -1577 15
-1629 46 -175 154 -263 375 -306 97 -19 455 -17 550 3 167 36 269 95 337 195
72 108 76 128 80 478 3 172 9 314 14 319 16 17 11 -567 -5 -645 -39 -185 -161
-299 -383 -361 -71 -20 -102 -22 -333 -23 -279 0 -338 8 -450 63 -107 51 -196
169 -219 287 -15 80 -21 499 -23 1775 l-1 1195 -9 -1195 c-5 -657 -7 -1321 -5
-1475 4 -257 6 -286 26 -349 41 -124 111 -205 226 -261 102 -50 192 -66 404
-72 487 -14 712 102 797 412 14 48 18 122 21 358 3 190 9 297 15 297 14 0 4
-600 -12 -665 -21 -88 -76 -188 -134 -247 -119 -119 -285 -173 -561 -184 -301
-13 -514 33 -649 139 -51 40 -111 133 -139 216 l-22 66 -5 1097 c-3 603 -8
1100 -12 1104 -5 4 -8 -481 -8 -1078 0 -1040 1 -1088 19 -1160 60 -235 205
-351 493 -394 141 -21 435 -20 547 1 294 57 463 215 510 479 6 33 11 187 11
342 0 193 3 285 11 290 8 4 10 -86 7 -317 -5 -353 -9 -379 -68 -507 -34 -73
-128 -172 -204 -217 -125 -73 -266 -105 -491 -112 -179 -6 -334 6 -445 33
-158 40 -293 141 -355 267 -66 135 -63 47 -67 1832 -3 1513 -2 1624 14 1688
54 207 199 344 422 397 152 36 418 50 601 30z m1525 -101 l62 -70 -23 -25 -23
-25 -25 25 -25 25 -65 -57 c-36 -31 -68 -59 -71 -62 -3 -3 -33 -29 -68 -59
-61 -52 -63 -53 -82 -36 -20 18 -27 45 -12 45 4 0 25 17 47 38 22 20 77 70
122 111 l83 73 -20 27 c-18 26 -18 29 -2 44 9 10 21 17 28 17 6 0 39 -32 74
-71z m-2512 52 c90 -5 166 -12 169 -15 16 -15 -18 -21 -138 -24 -71 -2 -129
-8 -129 -13 0 -5 47 -9 105 -9 58 0 105 -4 105 -9 0 -16 -30 -21 -121 -21 -58
0 -88 -4 -84 -10 3 -5 40 -10 81 -10 56 0 75 -3 72 -12 -3 -9 -31 -14 -82 -16
-87 -3 -96 -22 -10 -22 52 0 71 -11 38 -24 -9 -3 -39 -6 -67 -7 -41 -1 -47 -3
-27 -9 14 -4 40 -8 59 -9 54 -2 20 -31 -38 -32 -25 -1 -37 -3 -26 -6 69 -14
67 -13 55 -28 -7 -8 -27 -15 -44 -16 l-31 -1 33 -9 c39 -12 41 -24 5 -37 -28
-11 -28 -11 -5 -18 27 -8 24 -28 -5 -32 -20 -3 -21 -8 -27 -585 -3 -320 -8
-1167 -12 -1882 -3 -715 -8 -1302 -10 -1304 -2 -2 -6 -2 -8 0 -3 2 -8 528 -12
1167 -4 640 -11 1165 -16 1168 -4 3 -8 -521 -8 -1165 0 -1080 -7 -1389 -23
-1044 -4 75 -8 526 -8 1002 -1 476 -5 1012 -8 1191 -6 249 -8 102 -11 -635 -2
-528 -4 -973 -5 -990 -1 -16 -2 -180 -3 -362 -1 -214 -6 -333 -12 -333 -6 0
-10 119 -10 338 0 691 -15 1979 -21 1772 -3 -113 -6 -632 -7 -1154 -1 -523 -5
-952 -7 -955 -3 -2 -7 -2 -10 1 -3 3 -8 453 -12 999 -3 547 -9 1019 -13 1049
-4 30 -8 -229 -9 -576 -1 -801 -12 -1475 -23 -1468 -4 3 -8 189 -8 413 0 224
-3 734 -7 1132 l-8 724 -6 -500 c-3 -275 -7 -787 -8 -1137 0 -351 -5 -638 -9
-638 -11 0 -21 749 -24 1649 -1 383 -5 633 -8 566 -4 -66 -8 -483 -9 -926 -1
-855 -9 -1289 -23 -1289 -4 0 -9 379 -9 843 -1 463 -5 1009 -8 1212 -5 336 -7
290 -13 -504 -5 -481 -8 -1027 -8 -1213 0 -186 -4 -338 -8 -338 -9 0 -15 594
-28 2737 l-7 1023 -311 2 -311 3 -3 190 c-1 104 0 195 2 202 4 10 108 13 508
13 277 -1 576 -5 666 -9z m2673 -247 c10 -9 23 -32 30 -51 18 -56 -1 -85 -115
-167 -136 -99 -165 -113 -206 -96 -37 15 -70 63 -70 100 0 47 30 75 205 194
59 41 74 47 103 42 19 -3 43 -13 53 -22z m164 -256 c32 -60 31 -89 0 -126 -29
-34 -100 -72 -135 -72 -14 0 -38 16 -62 40 l-38 41 -68 -40 -67 -40 -18 21
c-10 12 -16 26 -14 32 2 6 84 57 182 113 128 73 182 99 188 90 4 -7 19 -33 32
-59z m176 -357 c23 -24 29 -38 29 -73 0 -47 -18 -71 -69 -98 -21 -11 -26 -10
-38 6 -19 27 -16 43 12 56 20 9 25 18 23 37 -2 15 -10 27 -21 29 -10 2 -72
-18 -138 -44 -113 -45 -120 -49 -117 -73 3 -28 28 -33 75 -17 19 6 25 3 34
-21 8 -22 7 -30 -7 -40 -24 -17 -78 -27 -109 -19 -32 8 -65 61 -65 103 0 52
34 78 170 132 148 59 180 63 221 22z m113 -307 c16 -41 6 -49 -177 -142 -100
-51 -187 -92 -193 -92 -14 0 -28 46 -19 60 4 6 12 10 19 10 26 0 37 25 25 58
-9 26 -16 31 -47 34 -32 3 -37 7 -40 31 -2 17 2 27 10 28 7 0 78 6 158 13 214
19 257 19 264 0z m60 -251 c16 -99 4 -143 -44 -168 -32 -17 -132 -20 -159 -5
-13 6 -38 1 -92 -20 -98 -39 -111 -39 -107 1 3 30 8 34 81 61 45 17 76 35 74
42 -4 12 -24 13 -115 1 l-63 -8 3 34 3 33 115 18 c63 10 149 24 190 32 110 20
107 21 114 -21z m-222 -948 c81 -14 153 -25 161 -25 8 0 17 13 21 30 4 24 11
30 31 30 14 0 28 -6 31 -14 6 -15 -20 -183 -29 -192 -2 -3 -16 -2 -31 2 -21 5
-26 12 -26 39 0 32 -2 34 -52 44 -63 12 -285 51 -293 51 -9 0 -6 30 5 50 6 11
16 17 23 15 6 -2 78 -16 159 -30z m-20 -185 c182 -49 198 -60 198 -135 0 -48
-18 -78 -58 -94 -26 -11 -46 -8 -148 19 -144 38 -197 62 -212 96 -16 33 -15
47 4 88 31 64 61 68 216 26z m-122 -245 c63 -25 146 -57 183 -72 37 -15 70
-30 73 -34 2 -5 -8 -37 -24 -72 -38 -83 -65 -96 -147 -72 -33 9 -67 27 -82 43
-23 24 -25 33 -19 84 l6 56 -75 27 c-41 15 -75 32 -75 37 0 18 21 48 33 48 7
0 64 -20 127 -45z m-105 -376 c162 -90 190 -124 160 -195 -25 -60 -85 -80
-145 -49 -34 18 -34 16 -18 50 8 18 16 24 27 19 39 -16 59 -16 69 3 6 11 8 24
4 30 -9 12 -63 46 -164 101 -70 39 -78 41 -92 26 -24 -24 -19 -40 19 -63 32
-19 34 -22 23 -46 -13 -29 -19 -30 -56 -11 -72 37 -87 112 -33 167 45 44 77
39 206 -32z m-189 -215 c179 -193 194 -209 194 -218 0 -12 -30 -46 -41 -46 -4
0 -51 20 -103 45 -53 25 -98 45 -100 45 -10 0 -175 80 -179 88 -3 4 3 18 12
31 15 20 21 22 39 12 32 -17 48 -13 66 14 16 24 16 27 -4 55 -18 25 -19 32 -8
50 7 11 18 20 24 20 6 0 51 -43 100 -96z m-94 -273 c76 -67 140 -126 143 -131
3 -4 -17 -31 -43 -59 -43 -46 -53 -51 -90 -51 -36 0 -50 7 -87 41 -24 22 -49
56 -55 74 -9 26 -26 42 -85 76 -41 24 -75 49 -75 55 0 6 9 19 19 28 19 17 22
16 88 -23 38 -23 75 -41 81 -41 25 0 10 25 -49 78 l-60 55 22 23 c19 20 25 22
38 11 9 -8 78 -69 153 -136z m-799 -494 c127 -236 143 -258 162 -227 11 18 42
10 53 -14 13 -29 15 -28 -90 -84 l-77 -42 -16 30 c-15 29 -15 31 10 42 14 6
25 16 25 23 0 6 -36 77 -80 157 -44 80 -80 150 -80 155 0 11 42 33 52 26 4 -2
22 -32 41 -66z m-186 -55 c33 -25 125 -236 131 -297 3 -44 1 -53 -21 -73 -14
-13 -43 -26 -64 -29 -62 -8 -90 23 -152 170 -63 150 -66 188 -12 224 40 27 87
29 118 5z m-170 -261 c34 -106 60 -197 58 -201 -8 -12 -95 -40 -126 -40 -58 0
-109 76 -109 161 1 43 17 65 64 84 20 8 36 17 36 18 0 2 -11 37 -25 78 -24 70
-25 75 -8 87 37 27 46 11 110 -187z m-460 89 c44 -16 59 -52 83 -203 25 -155
20 -186 -31 -212 -63 -33 -127 -6 -149 61 -13 39 -7 51 29 56 20 2 26 -3 33
-29 7 -26 14 -33 34 -33 13 0 27 6 30 14 6 15 -31 259 -41 276 -9 14 -42 12
-51 -2 -4 -7 -7 -29 -5 -49 1 -32 -2 -37 -25 -43 -33 -9 -44 5 -44 56 0 55 16
87 52 103 40 17 47 18 85 5z m-194 -27 c5 -8 -49 -398 -57 -420 -3 -7 -19 -13
-35 -13 -25 0 -32 5 -37 28 -3 15 -12 50 -20 77 -48 178 -81 315 -76 319 3 3
17 6 32 6 22 0 29 -6 37 -32 8 -28 13 -33 38 -31 46 4 55 11 55 43 0 27 3 30
29 30 17 0 32 -3 34 -7z m-402 -29 c5 -15 12 -53 16 -85 3 -33 10 -59 14 -59
5 0 12 0 17 0 4 0 9 35 12 77 l5 78 34 3 34 3 -7 -163 c-3 -90 -9 -187 -12
-216 l-6 -53 -62 7 c-83 9 -113 26 -125 71 -13 46 -3 121 20 154 17 24 17 33
6 113 -7 47 -11 89 -8 91 2 3 15 5 28 5 16 0 27 -8 34 -26z"/>
<path d="M3644 6075 c-4 -8 -7 -75 -8 -148 l-1 -132 24 0 c18 0 26 7 32 28 10
38 14 240 5 255 -10 17 -46 15 -52 -3z"/>
<path d="M3935 6051 c-3 -6 -10 -33 -14 -61 -6 -38 -5 -50 6 -55 22 -8 30 -6
47 11 17 17 23 104 7 104 -5 0 -16 3 -24 6 -8 3 -18 1 -22 -5z"/>
<path d="M4563 5722 c-30 -43 -32 -48 -16 -59 26 -20 30 -16 43 37 17 70 10
75 -27 22z"/>
<path d="M4848 5691 c-29 -53 -24 -71 19 -71 16 0 28 11 43 41 20 39 20 42 4
60 -26 28 -36 24 -66 -30z"/>
<path d="M3171 4774 c0 -11 3 -14 6 -6 3 7 2 16 -1 19 -3 4 -6 -2 -5 -13z"/>
<path d="M3282 4745 c0 -16 2 -22 5 -12 2 9 2 23 0 30 -3 6 -5 -1 -5 -18z"/>
<path d="M5670 4874 c-107 -77 -126 -104 -89 -127 13 -8 39 6 124 68 59 43
109 84 112 92 6 15 -14 43 -31 43 -7 0 -59 -34 -116 -76z"/>
<path d="M5888 4684 c-42 -27 -44 -32 -25 -59 16 -21 48 -16 86 14 19 14 22
24 17 45 -8 32 -29 33 -78 0z"/>
<path d="M6058 4013 c-38 -4 -46 -16 -29 -41 7 -11 20 -7 67 17 63 32 60 34
-38 24z"/>
<path d="M6227 3773 c-43 -5 -54 -21 -37 -53 10 -19 17 -21 53 -16 23 4 48 13
56 20 17 18 5 57 -17 54 -9 -1 -34 -3 -55 -5z"/>
<path d="M5965 2629 c-4 -12 -2 -26 3 -31 9 -9 242 -77 264 -78 4 0 12 10 19
21 17 32 -2 44 -126 78 -131 37 -151 38 -160 10z"/>
<path d="M6051 2322 c-14 -26 2 -47 50 -62 38 -13 42 -12 55 5 22 30 17 41
-29 59 -54 20 -64 20 -76 -2z"/>
<path d="M5645 1779 c-4 -11 -5 -21 -3 -22 17 -11 100 -47 105 -47 4 0 -13 20
-37 45 -24 25 -47 45 -51 45 -4 0 -11 -9 -14 -21z"/>
<path d="M5556 1498 c-17 -24 -9 -48 26 -72 28 -20 52 -20 68 -1 11 13 8 21
-16 46 -45 47 -60 53 -78 27z"/>
<path d="M4547 974 c-19 -19 -8 -52 74 -231 20 -45 46 -56 69 -29 17 22 -87
260 -116 264 -11 2 -23 0 -27 -4z"/>
<path d="M4357 709 c-18 -11 -18 -23 5 -81 7 -20 17 -28 35 -28 32 0 38 21 21
72 -15 45 -31 55 -61 37z"/>
<path d="M3678 694 c-3 -3 -2 -20 2 -37 4 -18 11 -45 16 -62 l7 -30 7 30 c4
17 8 47 9 68 1 30 -3 37 -17 37 -10 0 -21 -3 -24 -6z"/>
<path d="M3401 581 c-9 -6 -15 -27 -15 -58 -1 -47 0 -48 32 -51 l33 -3 -3 58
c-3 60 -16 74 -47 54z"/>
</g>
</svg>
